<?xml version="1.0" encoding="utf-8"?>
<!-- Generator: Adobe Illustrator 28.3.0, SVG Export Plug-In . SVG Version: 6.00 Build 0)  -->
<svg version="1.1" xmlns="http://www.w3.org/2000/svg" xmlns:xlink="http://www.w3.org/1999/xlink" x="0px" y="0px"
	 viewBox="0 0 178.69 72" style="enable-background:new 0 0 178.69 72;" xml:space="preserve">
<style type="text/css">
	.st0{display:none;}
	.st1{display:inline;fill:#2B3159;}
	.st2{font-family:'Funkydori';}
	.st3{font-size:35.003px;}
	.st4{display:inline;fill:#C9533F;}
	.st5{display:inline;fill:#FFFFFF;}
	.st6{fill:#2B3159;}
	.st7{fill:#C9533F;}
</style>
<g id="WO_Outlines" class="st0">
	<text transform="matrix(1 0 0 1 2.9084 -39.0197)" class="st1 st2 st3">Spaghetti</text>
	<path class="st1" d="M163.01-50.8c0.3,0.49,0.71,0.99,1.28,1.5l1.67,1.5l-1.94,1.13c-2.62,1.53-4.63,2.05-7.03,2.39
		c-1.39,0.2-2.63,0.29-3.79,0.29c-2.72,0-4.91-0.51-7.79-1.38c-1.81-0.55-5.21-2.77-6.43-4.03c-0.27-0.27-0.52-0.61-0.76-0.98
		c-6.05,1.22-10.01,3.24-10.01,5.52c0,3.73,10.55,6.75,23.57,6.75c13.02,0,23.57-3.02,23.57-6.75
		C175.37-47.43,170.37-49.66,163.01-50.8z"/>
	<path class="st4" d="M145.91-46.94c-1.49-0.46-4.65-2.48-5.74-3.6c-1.09-1.12-1.92-3.39-1.58-4.92c0.42-1.92,1.96-3.57,3.89-3.94
		c3.74-0.73,4.25,0.06,6.15,1.51c-2.03-2.27-1.91-6.14,0.27-8.28c2.18-2.13,6.05-2.18,8.28-0.1c1.68,1.57,2.32,3.95,2.55,6.23
		c0.23,2.28,0.14,4.61,0.69,6.84c0.38,1.53,0.74,3.28,2.8,5.11c-2.35,1.38-4.17,1.86-6.43,2.18
		C152.37-45.28,149.82-45.75,145.91-46.94z"/>
	<path class="st5" d="M168.89-45.96c-0.06,0.33-0.34,0.64-0.82,0.94c-1.35,1.09-6.85,2.35-15.8,2.35c-8.96,0-14.45-1.25-15.8-2.35
		c-0.48-0.3-0.76-0.61-0.83-0.94c-0.07,0.14-0.11,0.28-0.11,0.43c0,2.24,8.63,4.1,16.74,4.1c8.12,0,16.74-1.86,16.74-4.1
		C169-45.68,168.96-45.82,168.89-45.96z"/>
	<path class="st1" d="M174.24-52.65l-12.43-19.94c-0.15-0.24-0.65-0.11-0.77,0.21c-0.66,1.66-1.69,5.63,0.87,10.47
		c0.37,0.7,1.21,1.06,2.23,0.92l1.46-0.16c0.61-0.06,1.11,0.17,1.31,0.61l4.04,9.05c0.37,0.83,1.62,0.97,2.69,0.3l0,0
		C174.24-51.57,174.51-52.22,174.24-52.65z"/>
	<path class="st1" d="M134.75-54.14c0,0-1.31,4.03-4.59,2.32c-2.83-2.39,0.41-5.12,0.41-5.12s6.83-5.31,5.98-6.9
		c-1.78-3.33,2.31-7.67,2.31-7.67c0.91-0.1-0.91,3.86-0.91,3.86c-0.62,2.42,1.09,0.71,1.09,0.71c2.91-3.6,3.44-3.29,3.44-3.29
		s0.48,0.38-1.74,4.43c0,0-0.92,2.24,1.08,0.74c0,0,2.99-3.18,3.24-2.3c0,0-2.47,5.41-6.23,5.04
		C137.06-62.48,134.75-54.14,134.75-54.14z"/>
	<text transform="matrix(1 0 0 1 84.6174 -14.9015)" class="st1 st2 st3">Sorellas</text>
</g>
<g id="Outlines">
	<g>
		<path class="st6" d="M14.21,16.61c-2.56,0-4.1,1.26-4.1,2.98c0,0.98,0.73,1.79,1.65,1.79s1.47-0.46,1.93-1.19
			c0.21-0.35,0.38-0.56,0.67-0.56c0.25,0,0.49,0.21,0.49,1.05c0,2.35-1.61,5.6-5.57,5.6c-3.78,0-6.37-2.38-6.37-6.09
			c0-4.87,3.99-7.53,8.93-7.53c3.12,0,5.85,1.33,7.84,2.73c1.47-2.28,3.96-3.29,6.69-3.29c2.35,0,4.2,1.54,4.2,3.43
			c0,2.14-1.68,3.96-3.96,3.96c-1.5,0-1.96-0.17-2.35-0.35c1.05,4.55,4.87,6.79,4.87,12.99c0,5.32-3.64,10.61-10.68,10.61
			c-4.62,0-8.65-2.83-8.65-7.7c0-4.83,4.48-7.28,7.6-7.28c1.05,0,1.54,0.1,1.54,0.52c0,0.28-0.21,0.42-0.63,0.56
			c-1.26,0.35-2.38,1.47-2.38,3.43c0,1.65,1.26,2.94,3.19,2.94c2.07,0,3.85-1.61,3.85-5.04c0-5.22-4.03-8.23-4.03-12.53
			C17.02,16.89,15.83,16.61,14.21,16.61z M24.19,16.82c0.49,0.25,1.23,0.52,2.45,0.52c1.05,0,1.93-0.84,1.93-1.65
			c0-0.77-0.52-1.37-1.51-1.37C25.91,14.34,24.58,15.49,24.19,16.82z"/>
		<path class="st6" d="M31.65,26.03c0-0.77,1.89-1.29,3.92-1.29c0.77,0,1.19,0.31,1.19,0.91c0,0.56-0.1,0.98-0.1,0.98
			c0.31-0.49,2-1.89,4.13-1.89c2.21,0,3.61,1.47,3.61,3.85c0,3.05-2.35,7.25-6.65,7.25c-1.5,0-2.48-0.73-2.7-0.94
			c-0.42,1.65-1.15,5.43-1.15,6.97c0,1.16,0.67,1.65,1.44,1.65c0.31,0,0.49,0.14,0.49,0.42c0,0.56-1.61,1.89-3.92,1.89
			c-1.86,0-2.91-1.12-2.91-2.73c0-3.15,0.98-5.11,2.07-10.29c0.77-3.68,0.81-4.83,0.84-5.64C31.89,26.55,31.65,26.48,31.65,26.03z
			 M36.93,34.04c1.96,0,2.8-3.92,2.8-5.81c0-0.91-0.32-1.33-1.09-1.33c-0.67,0-1.4,0.67-1.85,1.72c-0.42,0.91-0.98,2.94-0.98,4.41
			C35.81,33.66,36.2,34.04,36.93,34.04z"/>
		<path class="st6" d="M55.76,35.83c-2.1,0-2.7-1.85-2.7-1.85s-1.86,1.85-4.41,1.85c-2.06,0-3.75-1.4-3.75-4.1c0-3.47,2.1-7,7.11-7
			c1.86,0,2.38,0.67,2.94,0.67c0.6,0,2.1-0.67,2.91-0.67c0.31,0,0.52,0.14,0.52,0.52c0,0.84-1.23,3.57-1.23,6.3
			c0,0.91,0.56,1.44,1.19,1.44c0.59,0,0.88-0.28,1.33-0.74c0.25-0.25,0.38-0.35,0.59-0.35c0.32,0,0.49,0.28,0.49,0.49
			c0,0.39-0.21,0.67-0.56,1.12C59.47,34.46,57.97,35.83,55.76,35.83z M52.33,26.27c-2,0-2.87,3.68-2.87,5.6
			c0,0.91,0.42,1.65,1.19,1.65c0.67,0,1.37-0.6,1.82-1.65c0.42-0.91,0.91-3.22,0.91-4.59C53.38,26.66,53.07,26.27,52.33,26.27z"/>
		<path class="st6" d="M95.14,38.73c0.35,0,0.52,0.28,0.52,0.74c0,2.62-1.22,9.91-7.91,9.91c-6.44,0-11.31-4.76-17.4-7.04
			c-1.37,5.53-4.1,10.71-10.33,10.71c-3.92,0-6.69-2.24-6.69-6.09c0-5.22,5.6-7.67,10.29-7.67c1.08,0,2.14,0.04,3.15,0.1
			c0.49-1.82,0.77-3.61,0.91-4.87c0,0-1.57,1.29-3.78,1.29c-2.38,0-3.99-1.65-3.99-4.1c0-3.43,2.1-7,7.14-7
			c1.82,0,2.49,0.67,3.05,0.67c0.73,0,1.85-0.67,2.84-0.67c0.35,0,0.52,0.14,0.52,0.52c0,0.63-0.81,1.79-1.58,7.39
			c-0.28,2-0.52,4.55-1.02,7.21c5.81,0.88,11.06,2.38,16.98,2.38c3.96,0,5.6-1.72,6.34-2.7C94.65,38.91,94.83,38.73,95.14,38.73z
			 M66.23,41.25c-0.7-0.11-1.44-0.14-2.17-0.14c-3.29,0-5.25,1.29-5.25,3.25c0,1.4,1.15,2.21,2.42,2.21
			C63.6,46.58,65.21,44.09,66.23,41.25z M67.21,26.17c-1.79,0-2.7,3.82-2.7,5.6c0,0.91,0.42,1.65,1.19,1.65s1.4-0.56,1.82-1.65
			c0.42-1.12,0.91-3.57,0.91-4.59C68.43,26.55,67.98,26.17,67.21,26.17z"/>
		<path class="st6" d="M81.52,33.13c0-1.89,1.12-3.71,1.12-5.04c0-0.53-0.35-0.84-0.84-0.84c-0.73,0-1.5,0.77-2.21,2.17
			c-0.63,1.19-1.44,4.76-1.47,5.5c0,0.59-0.25,0.73-0.73,0.73c-1.09,0-2.49,0.17-3.05,0.17c-0.42,0-0.67-0.17-0.67-0.77
			c0-2.98,3.08-10.71,3.08-15.61c0-1.16-0.59-1.72-1.33-1.72c-0.31,0-0.52-0.14-0.52-0.42c0-0.74,1.85-1.89,3.85-1.89
			c1.86,0,2.98,0.98,2.98,2.73c0,1.96-1.54,7.21-2.03,8.75c0.88-0.98,2.52-2.17,4.52-2.17c1.93,0,2.98,0.88,2.98,2.38
			c0,1.75-1.05,3.12-1.05,4.69c0,0.77,0.45,1.19,1.08,1.19c0.6,0,0.88-0.28,1.33-0.74c0.25-0.25,0.39-0.35,0.6-0.35
			c0.31,0,0.49,0.28,0.49,0.49c0,0.39-0.21,0.67-0.56,1.12c-0.73,0.95-2.24,2.31-4.45,2.31C82.5,35.83,81.52,34.74,81.52,33.13z"/>
		<path class="st6" d="M100,31.8c0.28-0.24,0.52-0.42,0.73-0.42c0.28,0,0.42,0.21,0.42,0.42c0,0.35-0.17,0.63-0.7,1.19
			c-1.16,1.23-2.87,2.94-6.27,2.94c-3.29,0-5.6-1.47-5.6-4.83c0-3.4,2.73-6.44,7.39-6.44c2.38,0,3.46,1.05,3.46,2.56
			c0,2-2.34,3.92-5.85,4.2c0,1.23,0.95,2.17,2.63,2.17C98.01,33.59,99.23,32.43,100,31.8z M96.89,26.97c0-0.53-0.28-0.81-0.84-0.81
			c-1.05,0-2.45,1.71-2.45,3.78C95.59,29.56,96.89,27.81,96.89,26.97z"/>
		<path class="st6" d="M105.74,27.6c-0.28,1.02-0.74,2.8-0.74,3.96c0,1.05,0.53,1.44,1.37,1.44c0.7,0,1.4-0.67,1.96-1.12
			c0.25-0.21,0.42-0.35,0.63-0.35c0.28,0,0.46,0.21,0.46,0.42c0,0.18-0.07,0.42-0.28,0.7c-0.91,1.19-3.22,3.19-5.39,3.19
			c-2.52,0-3.6-1.5-3.6-3.36c0-2.24,1.08-3.99,1.08-5.74c0-0.46-0.95-0.18-0.95-0.81c0-0.35,0.21-1.02,0.59-1.02
			c1.86,0,3.57-1.82,4.48-3.29c0.35-0.56,0.63-0.77,0.95-0.77c0.38,0,0.56,0.28,0.56,0.56c0,0.77-0.49,2.21-0.49,2.8
			c0,0.46,0.14,0.7,1.19,0.7c0.28,0,0.49,0.1,0.49,0.38c0,0.7-0.38,1.19-0.8,1.19C106.37,26.48,105.99,26.76,105.74,27.6z"/>
		<path class="st6" d="M113.97,27.6c-0.28,1.02-0.74,2.8-0.74,3.96c0,1.05,0.53,1.44,1.37,1.44c0.7,0,1.4-0.67,1.96-1.12
			c0.25-0.21,0.42-0.35,0.63-0.35c0.28,0,0.46,0.21,0.46,0.42c0,0.18-0.07,0.42-0.28,0.7c-0.91,1.19-3.22,3.19-5.39,3.19
			c-2.52,0-3.61-1.5-3.61-3.36c0-2.24,1.08-3.99,1.08-5.74c0-0.46-0.95-0.18-0.95-0.81c0-0.35,0.21-1.02,0.6-1.02
			c1.85,0,3.57-1.82,4.48-3.29c0.35-0.56,0.63-0.77,0.94-0.77c0.39,0,0.56,0.28,0.56,0.56c0,0.77-0.49,2.21-0.49,2.8
			c0,0.46,0.14,0.7,1.19,0.7c0.28,0,0.49,0.1,0.49,0.38c0,0.7-0.39,1.19-0.81,1.19C114.6,26.48,114.21,26.76,113.97,27.6z"/>
		<path class="st6" d="M122.4,33.2c0.42,0,0.63-0.14,0.91-0.35c0.25-0.17,0.32-0.28,0.53-0.28c0.25,0,0.35,0.17,0.35,0.38
			c0,0.28-0.17,0.56-0.42,0.88c-0.8,1.05-1.96,2-3.78,2c-2.31,0-3.33-1.29-3.33-2.91c0-2.24,1.16-4.52,1.16-5.78
			c0-0.6-0.21-0.67-0.21-1.12c0-0.77,1.86-1.29,3.88-1.29c0.77,0,1.19,0.31,1.19,0.91c0,1.4-1.12,3.96-1.12,6.27
			C121.56,32.78,121.91,33.2,122.4,33.2z M121.32,18.12c1.26,0,1.96,0.8,1.96,1.85c0,1.4-1.26,2.91-2.59,2.91
			c-1.08,0-1.96-0.84-1.96-1.89C118.73,19.59,119.99,18.12,121.32,18.12z"/>
	</g>
	<path class="st7" d="M145.91,27.73c-1.49-0.46-4.65-2.48-5.74-3.6c-1.09-1.12-1.92-3.39-1.58-4.92c0.42-1.92,1.96-3.57,3.89-3.94
		c3.74-0.73,4.25,0.06,6.15,1.51c-2.03-2.27-1.91-6.14,0.27-8.28c2.18-2.13,6.05-2.18,8.28-0.1c1.68,1.57,2.32,3.95,2.55,6.23
		c0.23,2.28,0.14,4.61,0.69,6.84c0.38,1.53,0.74,3.28,2.8,5.11c-2.35,1.38-4.17,1.86-6.43,2.18
		C152.37,29.39,149.82,28.93,145.91,27.73z"/>
	<path class="st6" d="M163.01,23.87c0.3,0.49,0.71,0.99,1.28,1.5l1.67,1.5l-1.94,1.13c-2.62,1.53-4.63,2.05-7.03,2.39
		c-1.39,0.2-2.63,0.29-3.79,0.29c-2.72,0-4.91-0.51-7.79-1.38c-1.81-0.55-5.21-2.77-6.43-4.03c-0.27-0.27-0.52-0.61-0.76-0.98
		c-6.05,1.22-10.01,3.24-10.01,5.52c0,3.73,10.55,6.75,23.57,6.75s23.57-3.02,23.57-6.75C175.37,27.25,170.37,25.01,163.01,23.87z
		 M152.26,33.24c-8.12,0-16.74-1.86-16.74-4.1c0-0.15,0.04-0.29,0.11-0.43c0.06,0.33,0.34,0.64,0.83,0.94
		c1.35,1.09,6.85,2.35,15.8,2.35c8.96,0,14.45-1.25,15.8-2.35c0.48-0.3,0.76-0.61,0.82-0.94c0.07,0.14,0.11,0.28,0.11,0.43
		C169,31.39,160.38,33.24,152.26,33.24z"/>
	<path class="st6" d="M174.24,22.03L161.81,2.09c-0.15-0.24-0.65-0.11-0.77,0.21c-0.66,1.66-1.69,5.63,0.87,10.47
		c0.37,0.7,1.21,1.06,2.23,0.92l1.46-0.16c0.61-0.06,1.11,0.17,1.31,0.61l4.04,9.05c0.37,0.83,1.62,0.97,2.69,0.3v0
		C174.24,23.1,174.51,22.46,174.24,22.03z"/>
	<path class="st6" d="M134.75,20.53c0,0-1.31,4.03-4.59,2.32c-2.83-2.39,0.41-5.12,0.41-5.12s6.83-5.31,5.98-6.9
		c-1.78-3.33,2.31-7.67,2.31-7.67c0.91-0.1-0.91,3.86-0.91,3.86c-0.62,2.42,1.09,0.71,1.09,0.71c2.91-3.6,3.44-3.29,3.44-3.29
		s0.48,0.38-1.74,4.43c0,0-0.92,2.24,1.08,0.74c0,0,2.99-3.18,3.24-2.3c0,0-2.47,5.41-6.23,5.04
		C137.06,12.19,134.75,20.53,134.75,20.53z"/>
	<g>
		<path class="st6" d="M93.37,42.41c0-3.81,3.82-5.85,6.72-5.85c2.87,0,4.55,1.33,4.55,3.82c0,1.54-0.98,2.94-2.42,2.94
			c-0.95,0-1.71-0.59-1.71-1.54c0-1.19,1.19-1.58,1.19-2.49c0-0.52-0.21-0.94-1.08-0.94c-1.22,0-2.31,1.05-2.31,2.59
			c0,4.1,4.76,6.51,4.76,11.62c0,1.65-0.31,3.43-1.05,4.73c3.4,3.75,6.34,6.02,9.59,6.02c2.52,0,3.12-1.08,3.54-1.08
			c0.35,0,0.53,0.17,0.53,0.53c0,0.98-2,6.02-6.44,6.02s-6.97-5.18-9.28-8.65c-1.4,1.61-4.44,3.33-7.98,3.33
			c-4.48,0-7.46-2.56-7.46-5.95c0-3.33,2.91-5.71,6.83-5.71c2.98,0,5.21,1.22,6.48,2.49C97.81,48.61,93.37,46.4,93.37,42.41z
			 M97.22,56.17c-1.12-1.12-2.34-1.86-3.71-1.86c-1.44,0-2.35,0.88-2.35,2c0,1.16,1.02,1.96,2.38,1.96
			C94.94,58.27,96.41,57.43,97.22,56.17z"/>
		<path class="st6" d="M116.4,52.81c0,3.92-2.49,7.28-6.79,7.28c-3.08,0-5.08-1.79-5.08-4.59c0-3.4,2.7-6.79,7.49-6.79
			C114.61,48.71,116.4,50.39,116.4,52.81z M113.11,53.54c-1.08-0.42-1.4-0.81-1.4-1.44c0-0.88,0.53-1.16,0.53-1.37
			c0-0.17-0.11-0.28-0.32-0.28c-0.14,0-0.49,0.1-0.98,0.49c-0.88,0.7-1.71,2-1.71,3.99c0,1.58,0.91,2.59,2.27,2.59
			c1.4,0,2.31-1.44,2.31-2.66C113.81,54.28,113.6,53.75,113.11,53.54z"/>
		<path class="st6" d="M136.42,46.47c0,1.05-0.17,1.44-0.46,1.44c-0.21,0-0.31-0.25-0.63-0.56c-0.8-0.8-1.86-1.22-3.33-1.22
			c-4.45,0-7.46,4.24-9.28,7.88c-0.59,1.19-1.58,3.67-1.58,5.04c0,0.6-0.24,0.74-0.77,0.74c-1.05,0-2.42,0.17-2.94,0.17
			c-0.46,0-0.74-0.17-0.74-0.77c0-1.3,1.47-6.02,1.47-7.91c0-0.59-0.25-0.67-0.25-1.12c0-0.77,1.89-1.29,3.92-1.29
			c0.77,0,1.19,0.31,1.19,0.91c0,0.56-0.11,1.26-0.11,1.26c1.37-2.56,4.83-9.1,9.07-9.1C135.16,41.92,136.42,44.41,136.42,46.47z"/>
		<path class="st6" d="M136.39,55.92c0.28-0.25,0.53-0.42,0.74-0.42c0.28,0,0.42,0.21,0.42,0.42c0,0.35-0.17,0.63-0.7,1.19
			c-1.15,1.22-2.87,2.94-6.27,2.94c-3.29,0-5.6-1.47-5.6-4.83c0-3.4,2.73-6.44,7.39-6.44c2.38,0,3.47,1.05,3.47,2.56
			c0,2-2.35,3.92-5.85,4.2c0,1.22,0.95,2.17,2.62,2.17C134.39,57.71,135.62,56.55,136.39,55.92z M133.27,51.09
			c0-0.53-0.28-0.81-0.84-0.81c-1.05,0-2.45,1.72-2.45,3.78C131.98,53.68,133.27,51.93,133.27,51.09z"/>
		<path class="st6" d="M135.83,56.66c0-3.19,2.7-7.67,2.7-13.09c0-1.16-0.59-1.71-1.37-1.71c-0.31,0-0.49-0.14-0.49-0.42
			c0-0.74,1.85-1.89,3.85-1.89c1.82,0,2.98,0.98,2.98,2.73c0,2.94-2.8,10.05-2.8,13.41c0,0.91,0.49,1.44,1.12,1.44
			c0.59,0,0.88-0.28,1.33-0.74c0.25-0.25,0.38-0.35,0.59-0.35c0.32,0,0.49,0.28,0.49,0.49c0,0.38-0.21,0.67-0.56,1.12
			c-0.73,0.94-2.21,2.31-4.41,2.31C136.91,59.95,135.83,58.48,135.83,56.66z"/>
		<path class="st6" d="M143.18,56.66c0-3.19,2.7-7.67,2.7-13.09c0-1.16-0.59-1.71-1.37-1.71c-0.31,0-0.49-0.14-0.49-0.42
			c0-0.74,1.85-1.89,3.85-1.89c1.82,0,2.98,0.98,2.98,2.73c0,2.94-2.8,10.05-2.8,13.41c0,0.91,0.49,1.44,1.12,1.44
			c0.59,0,0.88-0.28,1.33-0.74c0.25-0.25,0.38-0.35,0.59-0.35c0.32,0,0.49,0.28,0.49,0.49c0,0.38-0.21,0.67-0.56,1.12
			c-0.73,0.94-2.21,2.31-4.41,2.31C144.26,59.95,143.18,58.48,143.18,56.66z"/>
		<path class="st6" d="M161.38,59.95c-2.1,0-2.7-1.86-2.7-1.86s-1.86,1.86-4.41,1.86c-2.07,0-3.75-1.4-3.75-4.1c0-3.46,2.1-7,7.11-7
			c1.85,0,2.38,0.67,2.94,0.67c0.6,0,2.1-0.67,2.91-0.67c0.31,0,0.52,0.14,0.52,0.52c0,0.84-1.22,3.57-1.22,6.3
			c0,0.91,0.56,1.44,1.19,1.44c0.6,0,0.88-0.28,1.33-0.74c0.25-0.25,0.39-0.35,0.6-0.35c0.31,0,0.49,0.28,0.49,0.49
			c0,0.38-0.21,0.67-0.56,1.12C165.09,58.58,163.58,59.95,161.38,59.95z M157.95,50.39c-2,0-2.87,3.67-2.87,5.6
			c0,0.91,0.42,1.65,1.19,1.65c0.67,0,1.37-0.6,1.82-1.65c0.42-0.91,0.91-3.22,0.91-4.59C159,50.78,158.68,50.39,157.95,50.39z"/>
		<path class="st6" d="M167.75,56.48c0,0.88,0.32,1.47,0.95,1.47c0.49,0,0.77-0.31,0.77-0.95c0-2.06-3.46-2.38-3.46-5
			c0-2.21,2.21-3.33,4.83-3.33c2.56,0,3.71,0.98,3.71,2.42c0,0.95-0.49,1.79-1.65,1.79c-0.67,0-1.26-0.53-1.26-1.19
			c0-0.53,0.28-0.74,0.28-1.05c0-0.35-0.28-0.49-0.67-0.49c-0.46,0-1.01,0.49-1.01,1.16c0,2.07,3.85,2.34,3.85,4.9
			c0,2.28-1.82,3.82-4.9,3.82c-2.63,0-4.55-1.16-4.55-3.04c0-1.12,0.8-1.79,1.61-1.79C167.19,55.19,167.75,55.64,167.75,56.48z"/>
	</g>
</g>
</svg>
